<!DOCTYPE svg PUBLIC "-//W3C//DTD SVG 20010904//EN"
 "http://www.w3.org/TR/2001/REC-SVG-20010904/DTD/svg10.dtd">
<svg version="1.0" xmlns="http://www.w3.org/2000/svg"
 width="860.000000pt" height="558.000000pt" viewBox="0 0 860.000000 558.000000"
 preserveAspectRatio="xMidYMid meet">

<g transform="translate(0.000000,558.000000) scale(0.100000,-0.100000)"
fill="#000000" stroke="none">
<path d="M1303 5150 c-13 -5 -23 -14 -23 -20 0 -25 97 -255 152 -360 63 -119
189 -354 241 -450 107 -196 379 -574 557 -774 54 -61 146 -157 204 -214 l107
-103 -21 -29 c-37 -52 -76 -149 -158 -395 -122 -361 -203 -666 -233 -870 -7
-44 -12 -138 -12 -210 0 -114 3 -140 26 -210 28 -87 90 -212 185 -377 128
-222 136 -243 135 -338 0 -61 -10 -121 -33 -210 -18 -69 -33 -136 -34 -150
l-1 -25 2120 0 2120 0 -2 90 c-8 327 -78 716 -224 1248 -26 98 -74 291 -105
430 -87 388 -204 726 -308 887 -52 80 -176 210 -200 210 -26 0 -20 -9 47 -71
91 -83 159 -188 226 -347 63 -148 153 -427 177 -544 19 -95 78 -344 115 -483
74 -282 132 -508 150 -590 37 -168 99 -633 99 -742 l0 -63 -1402 -1 c-1623 0
-2782 1 -2784 4 -1 1 13 63 32 137 27 105 35 156 35 228 l0 93 -92 167 c-51
92 -106 192 -124 222 -43 75 -79 152 -107 230 -20 58 -23 82 -22 220 0 177 18
285 91 570 40 156 157 523 218 685 59 157 112 239 224 350 56 54 75 85 52 85
-4 0 -45 -38 -90 -85 -45 -47 -85 -85 -89 -85 -8 0 -236 229 -329 331 -33 37
-85 105 -116 150 -31 46 -81 120 -112 164 -72 102 -175 310 -219 445 -48 145
-66 258 -66 420 0 153 6 200 26 200 30 0 434 -189 640 -300 229 -122 432 -251
564 -358 178 -143 377 -331 431 -409 l16 -23 129 15 c409 45 474 48 800 42
277 -5 547 -23 636 -43 20 -4 43 3 80 24 117 65 151 83 322 161 97 45 304 133
459 196 155 63 343 140 417 170 144 60 462 180 520 197 19 5 61 18 94 29 32
10 62 16 66 14 33 -20 9 -218 -51 -429 -48 -168 -74 -234 -152 -391 -73 -147
-92 -172 -273 -362 -158 -166 -262 -254 -379 -323 -41 -25 -75 -48 -75 -52 0
-39 198 87 329 208 89 82 351 368 444 485 141 175 300 437 530 871 15 29 26
62 25 73 -3 18 -9 20 -68 17 -196 -10 -536 -115 -1040 -320 -80 -33 -251 -102
-380 -155 -379 -154 -669 -285 -781 -353 l-59 -35 -127 15 c-268 33 -970 40
-1097 11 -11 -3 -94 -12 -183 -20 l-161 -15 -144 143 c-241 241 -462 410 -728
557 -63 35 -153 85 -200 111 -103 58 -321 162 -490 234 -69 29 -182 81 -253
115 -71 34 -157 67 -195 75 -77 17 -70 16 -99 5z"/>
<path d="M3160 2931 c-112 -34 -170 -126 -170 -269 0 -95 82 -208 168 -231 72
-20 139 4 196 71 86 100 86 256 -1 357 -56 67 -126 92 -193 72z m40 -61 c45
-23 60 -45 60 -90 0 -76 -52 -130 -126 -130 -50 0 -104 53 -104 102 0 43 49
120 82 130 38 10 47 9 88 -12z"/>
<path d="M4985 2921 c-87 -40 -138 -132 -138 -247 1 -55 6 -81 26 -120 74
-145 208 -174 320 -70 68 63 92 218 49 316 -33 78 -122 140 -197 140 -11 0
-38 -9 -60 -19z m75 -57 c68 -58 77 -119 26 -170 -38 -38 -86 -45 -136 -19
-71 37 -81 112 -24 175 45 49 86 54 134 14z"/>
<path d="M3875 2319 c-16 -4 -36 -17 -42 -29 -11 -17 -9 -24 15 -50 47 -53
198 -66 253 -22 46 38 -6 82 -116 97 -28 4 -57 8 -65 10 -8 2 -28 -1 -45 -6z"/>
<path d="M2455 2147 c-78 -26 -145 -79 -176 -140 -65 -125 -8 -256 144 -334
46 -24 64 -27 152 -27 90 -1 106 2 158 27 68 34 129 107 148 177 27 103 -43
221 -164 275 -73 34 -195 44 -262 22z"/>
<path d="M5439 2131 c-114 -61 -172 -156 -173 -287 -1 -78 0 -81 38 -132 94
-123 310 -167 464 -94 188 89 235 326 88 447 -79 64 -148 89 -261 92 -94 3
-103 1 -156 -26z"/>
<path d="M4030 1839 c-41 -5 -98 -16 -126 -24 -58 -17 -135 -79 -154 -125 -16
-40 -8 -136 18 -215 38 -112 163 -198 324 -225 154 -25 249 -1 334 84 51 50
52 52 59 129 7 79 3 123 -20 214 -17 66 -28 85 -65 116 -49 42 -223 63 -370
46z m248 -35 c42 -8 86 -22 98 -29 33 -21 69 -161 69 -270 0 -83 -2 -93 -30
-135 -46 -69 -115 -100 -225 -100 -199 0 -349 82 -400 219 -28 73 -34 144 -16
179 19 38 80 86 142 114 88 39 237 48 362 22z"/>
</g>
</svg>
